<?xml version="1.0" encoding="UTF-8" standalone="no"?>
<svg
   viewBox="0 0 144 112"
   version="1.1"
   id="svg4"
   sodipodi:docname="blob.svg"
   width="144"
   height="112"
   inkscape:version="1.1.1 (3bf5ae0d25, 2021-09-20)"
   xmlns:inkscape="http://www.inkscape.org/namespaces/inkscape"
   xmlns:sodipodi="http://sodipodi.sourceforge.net/DTD/sodipodi-0.dtd"
   xmlns="http://www.w3.org/2000/svg"
   xmlns:svg="http://www.w3.org/2000/svg">
  <defs
     id="defs8" />
  <sodipodi:namedview
     id="namedview6"
     pagecolor="#505050"
     bordercolor="#ffffff"
     borderopacity="1"
     inkscape:pageshadow="0"
     inkscape:pageopacity="0"
     inkscape:pagecheckerboard="1"
     showgrid="false"
     inkscape:zoom="3.725"
     inkscape:cx="100"
     inkscape:cy="100"
     inkscape:window-width="3440"
     inkscape:window-height="1411"
     inkscape:window-x="-9"
     inkscape:window-y="-9"
     inkscape:window-maximized="1"
     inkscape:current-layer="svg4" />
  <path
     fill="#f2f4f8"
     d="m 98.346069,5.1121678 c 8.200001,5.5000002 13.300001,15.7000002 23.300001,28.5000002 10,12.8 24.8,28.3 21.7,37.9 -3.1,9.6 -24.2,13.5 -39.8,18 -15.600001,4.5 -25.800001,9.7 -39.700001,15.000002 -14,5.2 -31.8,10.6 -43.9,4.9 -12.1000004,-5.6 -18.6000004,-22.200002 -19.60000042,-37.700002 -0.9,-15.4 3.70000002,-29.7 13.00000042,-37.5 9.4,-7.7 23.5,-8.9 33.4,-13.9 9.8,-5 15.4,-13.8000002 23.8,-17.7000002 8.3,-4 19.6,-3.10000002 27.8,2.5 z"
     id="path2"
     style="fill:#ece6c2;fill-opacity:1" />
</svg>
